<svg xmlns="http://www.w3.org/2000/svg" viewBox="0 0 560 320" role="img" aria-label="Solution drawing for Exercise 2.6"><defs><marker id="arrow" viewBox="0 0 10 10" refX="9" refY="5" markerWidth="7" markerHeight="7" orient="auto-start-reverse"><path d="M0 0 L10 5 L0 10z" fill="context-stroke"/></marker></defs><rect width="560" height="320" rx="14" fill="#f6f8fb"/><g font-family="Arial, sans-serif"><text x="24" y="28" font-size="22" fill="#24354b" text-anchor="start">Position: x = 1.50t² − 0.0500t³</text><text x="28" y="43" font-size="16" fill="#24354b" text-anchor="start">x (m)</text><path d="M80,250.0 L510,250.0" fill="none" stroke="#cbd5df" stroke-width="2.5"/><text x="70" y="256.0" font-size="16" fill="#24354b" text-anchor="end">0</text><path d="M80,204.5 L510,204.5" fill="none" stroke="#cbd5df" stroke-width="2.5"/><text x="70" y="210.5" font-size="16" fill="#24354b" text-anchor="end">5.6</text><path d="M80,81.0 L510,81.0" fill="none" stroke="#cbd5df" stroke-width="2.5"/><text x="70" y="87.0" font-size="16" fill="#24354b" text-anchor="end">20.8</text><path d="M80,55 L80,250" fill="none" stroke="#24354b" stroke-width="2.5"/><path d="M80,250.0 L510,250.0" fill="none" stroke="#24354b" stroke-width="2.5"/><text x="80.0" y="278" font-size="16" fill="#24354b" text-anchor="middle">0</text><text x="295.0" y="278" font-size="16" fill="#24354b" text-anchor="middle">2</text><text x="510.0" y="278" font-size="16" fill="#24354b" text-anchor="middle">4</text><text x="505" y="300" font-size="16" fill="#24354b" text-anchor="end">t (s)</text><polyline points="80.000,250.000 81.792,249.997 83.583,249.986 85.375,249.970 87.167,249.946 88.958,249.916 90.750,249.879 92.542,249.835 94.333,249.784 96.125,249.727 97.917,249.663 99.708,249.593 101.500,249.516 103.292,249.432 105.083,249.342 106.875,249.245 108.667,249.141 110.458,249.031 112.250,248.914 114.042,248.791 115.833,248.661 117.625,248.524 119.417,248.381 121.208,248.232 123.000,248.076 124.792,247.914 126.583,247.745 128.375,247.569 130.167,247.387 131.958,247.199 133.750,247.004 135.542,246.803 137.333,246.595 139.125,246.381 140.917,246.160 142.708,245.934 144.500,245.700 146.292,245.461 148.083,245.215 149.875,244.962 151.667,244.704 153.458,244.439 155.250,244.167 157.042,243.890 158.833,243.606 160.625,243.316 162.417,243.020 164.208,242.717 166.000,242.408 167.792,242.093 169.583,241.772 171.375,241.444 173.167,241.110 174.958,240.770 176.750,240.424 178.542,240.072 180.333,239.714 182.125,239.349 183.917,238.978 185.708,238.602 187.500,238.219 189.292,237.830 191.083,237.435 192.875,237.034 194.667,236.626 196.458,236.213 198.250,235.794 200.042,235.369 201.833,234.937 203.625,234.500 205.417,234.057 207.208,233.607 209.000,233.152 210.792,232.691 212.583,232.224 214.375,231.750 216.167,231.271 217.958,230.787 219.750,230.296 221.542,229.799 223.333,229.296 225.125,228.788 226.917,228.273 228.708,227.753 230.500,227.227 232.292,226.695 234.083,226.158 235.875,225.614 237.667,225.065 239.458,224.510 241.250,223.949 243.042,223.383 244.833,222.810 246.625,222.232 248.417,221.649 250.208,221.059 252.000,220.464 253.792,219.863 255.583,219.257 257.375,218.644 259.167,218.027 260.958,217.403 262.750,216.774 264.542,216.139 266.333,215.499 268.125,214.853 269.917,214.202 271.708,213.544 273.500,212.882 275.292,212.214 277.083,211.540 278.875,210.861 280.667,210.176 282.458,209.485 284.250,208.790 286.042,208.088 287.833,207.382 289.625,206.669 291.417,205.952 293.208,205.229 295.000,204.500 296.792,203.766 298.583,203.027 300.375,202.282 302.167,201.532 303.958,200.776 305.750,200.015 307.542,199.249 309.333,198.478 311.125,197.701 312.917,196.919 314.708,196.131 316.500,195.338 318.292,194.540 320.083,193.737 321.875,192.928 323.667,192.114 325.458,191.295 327.250,190.471 329.042,189.641 330.833,188.807 332.625,187.967 334.417,187.122 336.208,186.271 338.000,185.416 339.792,184.555 341.583,183.690 343.375,182.819 345.167,181.943 346.958,181.062 348.750,180.176 350.542,179.285 352.333,178.388 354.125,177.487 355.917,176.581 357.708,175.669 359.500,174.753 361.292,173.831 363.083,172.905 364.875,171.973 366.667,171.037 368.458,170.096 370.250,169.149 372.042,168.198 373.833,167.242 375.625,166.281 377.417,165.315 379.208,164.344 381.000,163.368 382.792,162.387 384.583,161.402 386.375,160.411 388.167,159.416 389.958,158.416 391.750,157.411 393.542,156.401 395.333,155.387 397.125,154.368 398.917,153.344 400.708,152.315 402.500,151.281 404.292,150.243 406.083,149.200 407.875,148.152 409.667,147.100 411.458,146.043 413.250,144.981 415.042,143.914 416.833,142.843 418.625,141.767 420.417,140.687 422.208,139.602 424.000,138.512 425.792,137.418 427.583,136.319 429.375,135.215 431.167,134.107 432.958,132.995 434.750,131.878 436.542,130.756 438.333,129.630 440.125,128.499 441.917,127.364 443.708,126.224 445.500,125.080 447.292,123.931 449.083,122.778 450.875,121.620 452.667,120.458 454.458,119.292 456.250,118.121 458.042,116.946 459.833,115.766 461.625,114.582 463.417,113.394 465.208,112.201 467.000,111.004 468.792,109.803 470.583,108.597 472.375,107.387 474.167,106.172 475.958,104.954 477.750,103.731 479.542,102.504 481.333,101.272 483.125,100.037 484.917,98.797 486.708,97.553 488.500,96.304 490.292,95.052 492.083,93.795 493.875,92.534 495.667,91.269 497.458,90.000 499.250,88.726 501.042,87.449 502.833,86.167 504.625,84.882 506.417,83.592 508.208,82.298 510.000,81.000" fill="none" stroke="#145e96" stroke-width="3"/><circle cx="80.0" cy="250.0" r="4" fill="#b0442c"/><circle cx="295.0" cy="204.5" r="4" fill="#b0442c"/><circle cx="510.0" cy="81.0" r="4" fill="#b0442c"/></g></svg>
