<svg xmlns="http://www.w3.org/2000/svg" viewBox="0 0 560 320" role="img" aria-label="Solution drawing for Exercise 2.24"><defs><marker id="arrow" viewBox="0 0 10 10" refX="9" refY="5" markerWidth="7" markerHeight="7" orient="auto-start-reverse"><path d="M0 0 L10 5 L0 10z" fill="context-stroke"/></marker></defs><rect width="560" height="320" rx="14" fill="#f6f8fb"/><g font-family="Arial, sans-serif"><text x="24" y="28" font-size="22" fill="#24354b" text-anchor="start">Ramp car vs steady traffic</text><text x="28" y="50" font-size="16" fill="#24354b" text-anchor="start">vₓ (m/s)</text><path d="M80,250.0 L510,250.0" fill="none" stroke="#cbd5df" stroke-width="2.5"/><text x="70" y="256.0" font-size="16" fill="#24354b" text-anchor="end">0</text><path d="M80,168.75 L510,168.75" fill="none" stroke="#cbd5df" stroke-width="2.5"/><text x="70" y="174.75" font-size="16" fill="#24354b" text-anchor="end">10</text><path d="M80,87.5 L510,87.5" fill="none" stroke="#cbd5df" stroke-width="2.5"/><text x="70" y="93.5" font-size="16" fill="#24354b" text-anchor="end">20</text><path d="M80,55 L80,250" fill="none" stroke="#24354b" stroke-width="2.5"/><path d="M80,250.0 L510,250.0" fill="none" stroke="#24354b" stroke-width="2.5"/><text x="80.0" y="278" font-size="16" fill="#24354b" text-anchor="middle">0</text><text x="295.0" y="278" font-size="16" fill="#24354b" text-anchor="middle">6</text><text x="510.0" y="278" font-size="16" fill="#24354b" text-anchor="middle">12</text><text x="505" y="300" font-size="16" fill="#24354b" text-anchor="end">t (s)</text><polyline points="80.000,250.000 81.792,249.323 83.583,248.646 85.375,247.969 87.167,247.292 88.958,246.615 90.750,245.938 92.542,245.260 94.333,244.583 96.125,243.906 97.917,243.229 99.708,242.552 101.500,241.875 103.292,241.198 105.083,240.521 106.875,239.844 108.667,239.167 110.458,238.490 112.250,237.812 114.042,237.135 115.833,236.458 117.625,235.781 119.417,235.104 121.208,234.427 123.000,233.750 124.792,233.073 126.583,232.396 128.375,231.719 130.167,231.042 131.958,230.365 133.750,229.688 135.542,229.010 137.333,228.333 139.125,227.656 140.917,226.979 142.708,226.302 144.500,225.625 146.292,224.948 148.083,224.271 149.875,223.594 151.667,222.917 153.458,222.240 155.250,221.562 157.042,220.885 158.833,220.208 160.625,219.531 162.417,218.854 164.208,218.177 166.000,217.500 167.792,216.823 169.583,216.146 171.375,215.469 173.167,214.792 174.958,214.115 176.750,213.438 178.542,212.760 180.333,212.083 182.125,211.406 183.917,210.729 185.708,210.052 187.500,209.375 189.292,208.698 191.083,208.021 192.875,207.344 194.667,206.667 196.458,205.990 198.250,205.312 200.042,204.635 201.833,203.958 203.625,203.281 205.417,202.604 207.208,201.927 209.000,201.250 210.792,200.573 212.583,199.896 214.375,199.219 216.167,198.542 217.958,197.865 219.750,197.188 221.542,196.510 223.333,195.833 225.125,195.156 226.917,194.479 228.708,193.802 230.500,193.125 232.292,192.448 234.083,191.771 235.875,191.094 237.667,190.417 239.458,189.740 241.250,189.062 243.042,188.385 244.833,187.708 246.625,187.031 248.417,186.354 250.208,185.677 252.000,185.000 253.792,184.323 255.583,183.646 257.375,182.969 259.167,182.292 260.958,181.615 262.750,180.938 264.542,180.260 266.333,179.583 268.125,178.906 269.917,178.229 271.708,177.552 273.500,176.875 275.292,176.198 277.083,175.521 278.875,174.844 280.667,174.167 282.458,173.490 284.250,172.812 286.042,172.135 287.833,171.458 289.625,170.781 291.417,170.104 293.208,169.427 295.000,168.750 296.792,168.073 298.583,167.396 300.375,166.719 302.167,166.042 303.958,165.365 305.750,164.688 307.542,164.010 309.333,163.333 311.125,162.656 312.917,161.979 314.708,161.302 316.500,160.625 318.292,159.948 320.083,159.271 321.875,158.594 323.667,157.917 325.458,157.240 327.250,156.562 329.042,155.885 330.833,155.208 332.625,154.531 334.417,153.854 336.208,153.177 338.000,152.500 339.792,151.823 341.583,151.146 343.375,150.469 345.167,149.792 346.958,149.115 348.750,148.438 350.542,147.760 352.333,147.083 354.125,146.406 355.917,145.729 357.708,145.052 359.500,144.375 361.292,143.698 363.083,143.021 364.875,142.344 366.667,141.667 368.458,140.990 370.250,140.312 372.042,139.635 373.833,138.958 375.625,138.281 377.417,137.604 379.208,136.927 381.000,136.250 382.792,135.573 384.583,134.896 386.375,134.219 388.167,133.542 389.958,132.865 391.750,132.188 393.542,131.510 395.333,130.833 397.125,130.156 398.917,129.479 400.708,128.802 402.500,128.125 404.292,127.448 406.083,126.771 407.875,126.094 409.667,125.417 411.458,124.740 413.250,124.062 415.042,123.385 416.833,122.708 418.625,122.031 420.417,121.354 422.208,120.677 424.000,120.000 425.792,119.323 427.583,118.646 429.375,117.969 431.167,117.292 432.958,116.615 434.750,115.938 436.542,115.260 438.333,114.583 440.125,113.906 441.917,113.229 443.708,112.552 445.500,111.875 447.292,111.198 449.083,110.521 450.875,109.844 452.667,109.167 454.458,108.490 456.250,107.812 458.042,107.135 459.833,106.458 461.625,105.781 463.417,105.104 465.208,104.427 467.000,103.750 468.792,103.073 470.583,102.396 472.375,101.719 474.167,101.042 475.958,100.365 477.750,99.688 479.542,99.010 481.333,98.333 483.125,97.656 484.917,96.979 486.708,96.302 488.500,95.625 490.292,94.948 492.083,94.271 493.875,93.594 495.667,92.917 497.458,92.240 499.250,91.562 501.042,90.885 502.833,90.208 504.625,89.531 506.417,88.854 508.208,88.177 510.000,87.500" fill="none" stroke="#145e96" stroke-width="3"/><path d="M80,87.5 L510,87.5" fill="none" stroke="#b0442c" stroke-width="2.5"/><text x="250" y="76" font-size="18" fill="#b0442c" text-anchor="start">Traffic: 20 m/s</text><text x="270" y="200" font-size="18" fill="#145e96" text-anchor="start">Ramp car</text></g></svg>
